<svg xmlns="http://www.w3.org/2000/svg" xmlns:xlink="http://www.w3.org/1999/xlink" width="3000" zoomAndPan="magnify" viewBox="0 0 2250 2250.000011" height="3000" preserveAspectRatio="xMidYMid meet" version="1.0"><defs><clipPath id="1de7d029e3"><path d="M 329 81.308594 L 656.738281 81.308594 L 656.738281 1225.738281 L 329 1225.738281 Z M 329 81.308594 " clip-rule="nonzero"/></clipPath><clipPath id="e74dcd2b67"><path d="M 1419.003906 81.308594 L 1747.109375 81.308594 L 1747.109375 1225.738281 L 1419.003906 1225.738281 Z M 1419.003906 81.308594 " clip-rule="nonzero"/></clipPath><clipPath id="282d1f3844"><path d="M 0.00390625 0.308594 L 327.96875 0.308594 L 327.96875 1144.738281 L 0.00390625 1144.738281 Z M 0.00390625 0.308594 " clip-rule="nonzero"/></clipPath><clipPath id="e28f81ea55"><rect x="0" width="329" y="0" height="1145"/></clipPath><clipPath id="8c4a8f288f"><path d="M 1 81.308594 L 328.757812 81.308594 L 328.757812 1225.738281 L 1 1225.738281 Z M 1 81.308594 " clip-rule="nonzero"/></clipPath><clipPath id="44f5505792"><path d="M 1751.371094 81.308594 L 2079.339844 81.308594 L 2079.339844 1225.738281 L 1751.371094 1225.738281 Z M 1751.371094 81.308594 " clip-rule="nonzero"/></clipPath><clipPath id="a42d1e2b41"><path d="M 0.371094 0.308594 L 328 0.308594 L 328 1144.738281 L 0.371094 1144.738281 Z M 0.371094 0.308594 " clip-rule="nonzero"/></clipPath><clipPath id="325bb5d774"><rect x="0" width="329" y="0" height="1145"/></clipPath><clipPath id="1345044ee6"><path d="M 355.902344 2 L 1011.78125 2 L 1011.78125 1304.4375 L 355.902344 1304.4375 Z M 355.902344 2 " clip-rule="nonzero"/></clipPath><clipPath id="4b32373f06"><path d="M 1011.78125 2.546875 C 654.535156 2.546875 355.902344 298.933594 355.902344 653.492188 C 355.902344 1008.050781 654.535156 1304.4375 1011.78125 1304.4375 L 1011.78125 942.992188 C 852.898438 942.992188 720.085938 811.179688 720.085938 653.492188 C 720.085938 495.804688 852.898438 363.992188 1011.78125 363.992188 Z M 1011.78125 2.546875 " clip-rule="nonzero"/></clipPath><clipPath id="6d0124a940"><path d="M 0.902344 0.308594 L 656.78125 0.308594 L 656.78125 1302.4375 L 0.902344 1302.4375 Z M 0.902344 0.308594 " clip-rule="nonzero"/></clipPath><clipPath id="0fda3f2dbf"><path d="M 656.78125 0.546875 C 299.535156 0.546875 0.902344 296.933594 0.902344 651.492188 C 0.902344 1006.050781 299.535156 1302.4375 656.78125 1302.4375 L 656.78125 940.992188 C 497.898438 940.992188 365.085938 809.179688 365.085938 651.492188 C 365.085938 493.804688 497.898438 361.992188 656.78125 361.992188 Z M 656.78125 0.546875 " clip-rule="nonzero"/></clipPath><clipPath id="4ded2ded0d"><rect x="0" width="657" y="0" height="1303"/></clipPath><clipPath id="3a2cbe8115"><path d="M 1068.203125 2.5625 L 1724.082031 2.5625 L 1724.082031 1305 L 1068.203125 1305 Z M 1068.203125 2.5625 " clip-rule="nonzero"/></clipPath><clipPath id="658c5b258c"><path d="M 1068.203125 1304.453125 C 1425.449219 1304.453125 1724.082031 1008.066406 1724.082031 653.507812 C 1724.082031 298.949219 1425.449219 2.5625 1068.203125 2.5625 L 1068.203125 364.007812 C 1227.085938 364.007812 1359.898438 495.820312 1359.898438 653.507812 C 1359.898438 811.195312 1227.085938 943.007812 1068.203125 943.007812 Z M 1068.203125 1304.453125 " clip-rule="nonzero"/></clipPath><clipPath id="1d8e80de1a"><path d="M 0.203125 0.5625 L 656.082031 0.5625 L 656.082031 1302.691406 L 0.203125 1302.691406 Z M 0.203125 0.5625 " clip-rule="nonzero"/></clipPath><clipPath id="caedef0037"><path d="M 0.203125 1302.453125 C 357.449219 1302.453125 656.082031 1006.066406 656.082031 651.507812 C 656.082031 296.949219 357.449219 0.5625 0.203125 0.5625 L 0.203125 362.007812 C 159.085938 362.007812 291.898438 493.820312 291.898438 651.507812 C 291.898438 809.195312 159.085938 941.007812 0.203125 941.007812 Z M 0.203125 1302.453125 " clip-rule="nonzero"/></clipPath><clipPath id="4076bcabd2"><rect x="0" width="657" y="0" height="1303"/></clipPath><clipPath id="54ae43ab32"><rect x="0" width="2080" y="0" height="1307"/></clipPath></defs><g transform="matrix(1, 0, 0, 1, 85, 471)"><g clip-path="url(#54ae43ab32)"><g clip-path="url(#1de7d029e3)"><path fill="#010101" d="M 602.898438 1169.101562 L 604.582031 1201.984375 C 604.785156 1208.101562 600.042969 1213.25 593.976562 1213.605469 L 345.566406 1223.902344 C 339.34375 1224.105469 334.144531 1219.160156 333.941406 1212.941406 C 333.941406 1212.839844 333.941406 1212.738281 333.941406 1212.585938 L 329.25 96.601562 C 329.25 90.382812 334.296875 85.335938 340.515625 85.335938 L 594.28125 81.308594 C 600.503906 81.308594 605.550781 86.355469 605.550781 92.625 L 606.570312 146.761719 C 606.773438 152.980469 601.878906 158.183594 595.609375 158.386719 C 595.40625 158.386719 595.148438 158.386719 594.945312 158.386719 L 417.917969 156.398438 C 411.695312 156.398438 406.648438 161.445312 406.648438 167.714844 L 404.660156 1146.925781 C 404.660156 1153.148438 409.707031 1158.195312 415.929688 1158.195312 L 591.632812 1158.5 C 597.597656 1158.5 602.542969 1163.136719 602.898438 1169.101562 Z M 1253.554688 158.335938 C 1261.253906 158.335938 1267.523438 164.554688 1267.523438 172.300781 L 1267.523438 1135.253906 C 1267.523438 1142.695312 1261.660156 1148.863281 1254.21875 1149.222656 L 1082.183594 1157.835938 C 1074.738281 1158.195312 1068.875 1164.3125 1068.875 1171.804688 L 1068.875 1207.335938 C 1068.875 1214.929688 1074.894531 1221.097656 1082.492188 1221.304688 L 1328.914062 1225.636719 C 1329.015625 1225.636719 1329.117188 1225.636719 1329.269531 1225.636719 C 1336.96875 1225.636719 1343.242188 1219.367188 1343.242188 1211.667969 L 1343.90625 95.582031 C 1343.90625 95.480469 1343.90625 95.378906 1343.90625 95.226562 C 1343.699219 87.527344 1337.328125 81.410156 1329.628906 81.613281 L 1082.847656 84.621094 C 1075.402344 84.773438 1069.386719 90.789062 1069.234375 98.234375 L 1067.90625 142.378906 C 1067.90625 142.480469 1067.90625 142.582031 1067.90625 142.734375 C 1067.90625 150.433594 1074.179688 156.703125 1081.878906 156.652344 Z M 1253.554688 158.335938 " fill-opacity="1" fill-rule="nonzero"/></g><g clip-path="url(#e74dcd2b67)"><g transform="matrix(1, 0, 0, 1, 1419, 81)"><g clip-path="url(#e28f81ea55)"><g clip-path="url(#282d1f3844)"><path fill="#010101" d="M 53.699219 1088.101562 L 52.015625 1120.984375 C 51.8125 1127.101562 56.554688 1132.25 62.621094 1132.605469 L 311.035156 1142.902344 C 317.253906 1143.105469 322.457031 1138.160156 322.660156 1131.941406 C 322.660156 1131.839844 322.660156 1131.738281 322.660156 1131.585938 L 327.351562 15.601562 C 327.351562 9.382812 322.300781 4.335938 316.082031 4.335938 L 62.316406 0.308594 C 56.09375 0.308594 51.046875 5.355469 51.046875 11.625 L 50.027344 65.761719 C 49.824219 71.980469 54.71875 77.183594 60.992188 77.386719 C 61.195312 77.386719 61.449219 77.386719 61.652344 77.386719 L 238.683594 75.398438 C 244.902344 75.398438 249.949219 80.445312 249.949219 86.714844 L 251.9375 1065.925781 C 251.9375 1072.148438 246.890625 1077.195312 240.671875 1077.195312 L 64.96875 1077.5 C 59 1077.5 54.054688 1082.136719 53.699219 1088.101562 Z M -596.953125 77.335938 C -604.652344 77.335938 -610.925781 83.554688 -610.925781 91.300781 L -610.925781 1054.253906 C -610.925781 1061.695312 -605.0625 1067.863281 -597.617188 1068.222656 L -425.585938 1076.835938 C -418.140625 1077.195312 -412.277344 1083.3125 -412.277344 1090.804688 L -412.277344 1126.335938 C -412.277344 1133.929688 -418.292969 1140.097656 -425.890625 1140.304688 L -672.316406 1144.636719 C -672.417969 1144.636719 -672.519531 1144.636719 -672.671875 1144.636719 C -680.371094 1144.636719 -686.640625 1138.367188 -686.640625 1130.667969 L -687.304688 14.582031 C -687.304688 14.480469 -687.304688 14.378906 -687.304688 14.226562 C -687.101562 6.527344 -680.726562 0.410156 -673.027344 0.613281 L -426.246094 3.621094 C -418.804688 3.773438 -412.789062 9.789062 -412.632812 17.234375 L -411.308594 61.378906 C -411.308594 61.480469 -411.308594 61.582031 -411.308594 61.734375 C -411.308594 69.433594 -417.582031 75.703125 -425.28125 75.652344 Z M -596.953125 77.335938 " fill-opacity="1" fill-rule="nonzero"/></g></g></g></g><g clip-path="url(#8c4a8f288f)"><path fill="#010101" d="M 274.917969 1169.101562 L 276.601562 1201.984375 C 276.804688 1208.101562 272.0625 1213.25 265.996094 1213.605469 L 17.582031 1223.902344 C 11.363281 1224.105469 6.164062 1219.160156 5.957031 1212.941406 C 5.957031 1212.839844 5.957031 1212.738281 5.957031 1212.585938 L 1.265625 96.601562 C 1.265625 90.382812 6.316406 85.335938 12.535156 85.335938 L 266.300781 81.308594 C 272.523438 81.308594 277.570312 86.355469 277.570312 92.625 L 278.589844 146.761719 C 278.792969 152.980469 273.898438 158.183594 267.628906 158.386719 C 267.421875 158.386719 267.167969 158.386719 266.964844 158.386719 L 89.933594 156.398438 C 83.714844 156.398438 78.667969 161.445312 78.667969 167.714844 L 76.679688 1146.925781 C 76.679688 1153.148438 81.726562 1158.195312 87.945312 1158.195312 L 263.648438 1158.5 C 269.617188 1158.5 274.5625 1163.136719 274.917969 1169.101562 Z M 925.574219 158.335938 C 933.273438 158.335938 939.542969 164.554688 939.542969 172.300781 L 939.542969 1135.253906 C 939.542969 1142.695312 933.679688 1148.863281 926.234375 1149.222656 L 754.203125 1157.835938 C 746.757812 1158.195312 740.894531 1164.3125 740.894531 1171.804688 L 740.894531 1207.335938 C 740.894531 1214.929688 746.910156 1221.097656 754.507812 1221.304688 L 1000.933594 1225.636719 C 1001.035156 1225.636719 1001.136719 1225.636719 1001.289062 1225.636719 C 1008.988281 1225.636719 1015.261719 1219.367188 1015.261719 1211.667969 L 1015.921875 95.582031 C 1015.921875 95.480469 1015.921875 95.378906 1015.921875 95.226562 C 1015.71875 87.527344 1009.34375 81.410156 1001.644531 81.613281 L 754.867188 84.621094 C 747.421875 84.773438 741.40625 90.789062 741.25 98.234375 L 739.925781 142.378906 C 739.925781 142.480469 739.925781 142.582031 739.925781 142.734375 C 739.925781 150.433594 746.199219 156.703125 753.898438 156.652344 Z M 925.574219 158.335938 " fill-opacity="1" fill-rule="nonzero"/></g><g clip-path="url(#44f5505792)"><g transform="matrix(1, 0, 0, 1, 1751, 81)"><g clip-path="url(#325bb5d774)"><g clip-path="url(#a42d1e2b41)"><path fill="#010101" d="M 54.066406 1088.101562 L 52.382812 1120.984375 C 52.179688 1127.101562 56.921875 1132.25 62.988281 1132.605469 L 311.402344 1142.902344 C 317.621094 1143.105469 322.820312 1138.160156 323.027344 1131.941406 C 323.027344 1131.839844 323.027344 1131.738281 323.027344 1131.585938 L 327.71875 15.601562 C 327.71875 9.382812 322.667969 4.335938 316.449219 4.335938 L 62.683594 0.308594 C 56.460938 0.308594 51.414062 5.355469 51.414062 11.625 L 50.394531 65.761719 C 50.191406 71.980469 55.085938 77.183594 61.355469 77.386719 C 61.5625 77.386719 61.816406 77.386719 62.019531 77.386719 L 239.050781 75.398438 C 245.269531 75.398438 250.316406 80.445312 250.316406 86.714844 L 252.304688 1065.925781 C 252.304688 1072.148438 247.257812 1077.195312 241.039062 1077.195312 L 65.335938 1077.5 C 59.367188 1077.5 54.421875 1082.136719 54.066406 1088.101562 Z M -596.589844 77.335938 C -604.285156 77.335938 -610.558594 83.554688 -610.558594 91.300781 L -610.558594 1054.253906 C -610.558594 1061.695312 -604.695312 1067.863281 -597.25 1068.222656 L -425.21875 1076.835938 C -417.773438 1077.195312 -411.910156 1083.3125 -411.910156 1090.804688 L -411.910156 1126.335938 C -411.910156 1133.929688 -417.925781 1140.097656 -425.523438 1140.304688 L -671.949219 1144.636719 C -672.050781 1144.636719 -672.152344 1144.636719 -672.304688 1144.636719 C -680.003906 1144.636719 -686.277344 1138.367188 -686.277344 1130.667969 L -686.9375 14.582031 C -686.9375 14.480469 -686.9375 14.378906 -686.9375 14.226562 C -686.734375 6.527344 -680.359375 0.410156 -672.660156 0.613281 L -425.882812 3.621094 C -418.4375 3.773438 -412.421875 9.789062 -412.265625 17.234375 L -410.941406 61.378906 C -410.941406 61.480469 -410.941406 61.582031 -410.941406 61.734375 C -410.941406 69.433594 -417.214844 75.703125 -424.914062 75.652344 Z M -596.589844 77.335938 " fill-opacity="1" fill-rule="nonzero"/></g></g></g></g><g clip-path="url(#1345044ee6)"><g clip-path="url(#4b32373f06)"><g transform="matrix(1, 0, 0, 1, 355, 2)"><g clip-path="url(#4ded2ded0d)"><g clip-path="url(#6d0124a940)"><g clip-path="url(#0fda3f2dbf)"><path fill="#000000" d="M 0.902344 1302.4375 L 0.902344 0.925781 L 656.78125 0.925781 L 656.78125 1302.4375 Z M 0.902344 1302.4375 " fill-opacity="1" fill-rule="nonzero"/></g></g></g></g></g></g><g clip-path="url(#3a2cbe8115)"><g clip-path="url(#658c5b258c)"><g transform="matrix(1, 0, 0, 1, 1068, 2)"><g clip-path="url(#4076bcabd2)"><g clip-path="url(#1d8e80de1a)"><g clip-path="url(#caedef0037)"><path fill="#000000" d="M 656.082031 0.5625 L 656.082031 1302.074219 L 0.203125 1302.074219 L 0.203125 0.5625 Z M 656.082031 0.5625 " fill-opacity="1" fill-rule="nonzero"/></g></g></g></g></g></g></g></g></svg>